<?xml version="1.0" encoding="UTF-8"?><svg id="b" xmlns="http://www.w3.org/2000/svg" viewBox="0 0 593.2 273.3"><defs><style>.d{fill:#691b32;}.e{fill:#707271;}.f{fill:#bc955c;}.g{fill:#989799;}</style></defs><g id="c"><g><path class="d" d="m11.4,79.8c.6-2.6,3.6-17.1,4.7-23.2l4.1-23.2c1.2-6.8,3.1-17.1,3.1-20.9.1-.6,0-1.2-.1-1.3-.6-1.3-6-2.9-9.7-4.2L15.9.8h17.5c4.2,0,17.1-.8,23.5-.8,17.1,0,27.8,7.3,27.8,21.5s-8.7,21.4-19.7,26.9c2.6,8.7,7.2,22.9,10.2,31.7l9.6,3.8-2.3,6.4c-7,0-13.2.3-22.1.5-3.6-12.4-6.3-23.5-10.7-37.6h-16.8l-.8,4.4c-1.4,7.9-3.7,20.5-3.1,22.1.5,1.3,6,3.1,9.9,4.2l-2.4,6.4H.5l-.5-6.4,11.4-4.1Zm23.3-36.9l21.1.8c6-3.7,12-11.4,12-20.9s-.9-7.9-3.1-10.4c-2.4-2-6.7-3.3-12.3-3.3s-8.4.6-11.4,1.3c-.6,2.2-3.8,17.5-4.9,23.9l-1.5,8.6Z"/><path class="d" d="m161.5,17.8c.8,1.3,1.8,3.3,2,4.4-1.2,5-3.7,12.9-5.4,18.2-2.4.1-7,.1-9.6-.1v-13.4c-2.9-.3-7.3-.4-11.1-.4s-8.4.1-10.2.5c-.8,2.8-2.2,10-3.7,18.6l-.9,5.2,22-1,1.3,2.4c0,.1-2.6,7.4-2.6,7.5l-22.1-.8-1,5.4c-1.2,6.4-2.8,15.7-2,17.1.6,1.3,7.3,1.3,11.1,1.3s7.2-.1,10.4-.5l5.5-13.6c2.7,0,8.2.4,10.5.8-1,6.7-2.2,12.3-3.8,21h-60.3v-6.4c-.1,0,10.4-3.3,10.4-3.3,1.5-5.6,2.7-11.5,4-18.8l2.9-17c1-5.1,2.6-15,1.8-16.3-.8-1.2-5.4-2.3-8.8-3.5l2.4-6.4h28.2c11.8,0,21.2-.3,29.2-.9Z"/><path class="d" d="m214.3,79.8c1.3-6.7,2.2-11.9,1.9-13.6,0-1.4-5.1-2.7-8.8-3.7l2.4-6.4h31.2v6.4c.1,0-9.1,2.7-9.1,2.7-1.2,4.9-2.3,10.9-3.3,16.5l-.3,1.5c-6.8,4.6-17.8,8.4-28.5,8.4-19.3,0-30.7-10.4-30.7-27.9,0-25.5,19.3-46.6,46.1-46.6s17.4,2.7,23.2,6.1l1.2,2.9c-1.9,5.6-4.9,13.7-6.3,17.4-2.3.1-7.4,0-9.7-.3,0-6-.1-11.3-.1-13.7-2.9-1.8-6.8-2.6-11.8-2.6s-10.9,1.5-15.4,4.4c-6.7,6.7-11.5,18-11.5,30.2s7,20.1,18.7,20.1,7.9-.8,10.9-2Z"/><path class="d" d="m257.3,80.6c1.2-4.5,2.2-9.6,3.6-17.1l3.2-17.9c1-5.8,2.7-15.6,2-16.6-.8-1.2-6-2.7-9.7-3.8l2.6-6.4h35.4l.3,6.4-11.3,3.3c-.8,2.7-2.4,10.5-3.6,16.9l-3.3,18.9c-1.2,6.8-2.7,15.4-2,16.8.8,1.3,7,1.4,11.1,1.4s7.5,0,10.2-.4l5.9-15.2c2.8-.1,8.1.3,10.5.6-1.2,7.3-2.6,15.1-4.1,22.9h-61.3v-6.4c-.1,0,10.5-3.3,10.5-3.3Z"/><path class="d" d="m343.3,90.3h-26.6v-6.4c-.1,0,8.6-2.8,8.6-2.8,10.4-18.7,19.6-36,28.3-52.7l4.6-9.7c5.1-.9,14.2-1.7,19.1-1.8,0,2.4,1.2,9.5,1.5,12,2.8,16.8,6.5,36.2,9.9,52.3l7.5,2.7-2.4,6.4h-32v-6.4c-.1,0,10.4-2.7,10.4-2.7l-2.2-13.3-27.3.4-6.3,12.8,9.3,2.8-2.4,6.4Zm25.3-30.6c-2-12.4-4.2-26-5.5-32.6-3.3,6.5-10,20.1-16.1,32.5h21.6Z"/><path class="d" d="m465.2,22.6l1,2.9c-1.5,4.5-4.2,12.5-5.5,15.6-2,.1-7.4.1-9.7-.3.4-5.6.4-9.9.3-13.2-2-1.3-5.5-2.2-9.2-2.2s-8.6,1-11.1,3.1c-1.9,2-3.5,5.5-3.5,8.8,0,15,33.1,10.6,33.1,31.6s-9.7,22.8-30.2,22.8-20.5-3.3-25.1-6.1l-.3-.9c.5-2.8,2.9-15,3.3-16.4,2.3-.5,8.3-.6,10.4-.5-.1,5.4-.1,9.1-.1,12.7,2.4,1.5,7.2,2.8,12,2.8s7.8-.5,10.5-2c1.9-1.9,3.8-5.4,3.8-9.2,0-13.9-32.9-10-32.9-31s13.4-24.1,31.5-24.1,16.9,2.3,21.6,5.5Z"/></g><g><path class="f" d="m68.2,135.4c0,23.5-13.6,50.2-39.7,50.2S.2,175.2.2,154s14.3-48.8,40.3-48.8,27.8,10.4,27.8,30.2Zm-42.4-16.5c-6,7-11.1,19.7-11.1,33.8s5.2,22.9,16.3,22.9,9-1.7,11.7-3.7c5.5-6.8,10.7-20.6,10.7-36s-6.1-21.1-15.1-21.1-9.4,1.8-12.6,4.1Z"/><path class="f" d="m81.7,176c.7-1.9,2.4-9.8,3.3-15.1l2.9-16.2c.7-3.9,1.7-9.7,1.7-12.2s-.1-1.4-.2-1.7c-.8-1.2-4.9-2.2-7.5-3.2l2.1-5.5h14.1c3.5,0,12.7-.6,16.8-.6,13.1,0,20.7,5.3,20.7,15.9s-11.3,26.6-28.9,26.6-6.8-.2-9.2-.7c-.7,3.5-1.4,8.5-1.4,10.4s0,1.4.2,1.8c.9,1.3,6.1,2.1,9.7,3.1l-2.1,5.4h-30.5v-5.4c-.1,0,8.4-2.8,8.4-2.8Zm40.5-37.5c0-3.3-.9-5.5-2.1-7.1-1.9-1.4-4.4-2.2-8.1-2.2s-6.2.4-8.5,1c-1,4.2-1.7,8.1-3,15.2l-1.8,10.2c2.4.4,5.5.7,7.9.7,3.3,0,6.6-.3,9.2-1.4,3-2.4,6.4-9.3,6.4-16.3Z"/><path class="f" d="m198,121.5c.7,1.1,1.5,2.9,1.8,3.8-1,4.3-3.2,11.2-4.6,15.7-2.1.1-6.1.1-8.3-.1v-11.6c-2.5-.2-6.3-.3-9.6-.3s-7.3.1-8.9.4c-.7,2.4-1.9,8.6-3.2,16l-.8,4.5,19-.9,1.1,2.1c0,.1-2.2,6.4-2.2,6.5l-19.1-.7-.9,4.6c-1,5.5-2.4,13.6-1.8,14.8.6,1.1,6.3,1.1,9.6,1.1s6.2-.1,9-.4l4.8-11.7c2.3,0,7.1.3,9.1.7-.9,5.8-1.9,10.6-3.3,18.2h-52.1v-5.5c-.1,0,9-2.9,9-2.9,1.3-4.9,2.3-10,3.4-16.3l2.5-14.7c.9-4.4,2.2-12.9,1.5-14.1-.7-1-4.6-2-7.6-3l2.1-5.5h24.3c10.2,0,18.4-.2,25.2-.8Z"/><path class="f" d="m210.7,175.8c1-3.3,2.1-8.9,3.2-14.8l2.9-16.2c.7-4.1,1.8-10.4,1.8-12.8s-.1-.9-.2-1.1c-.4-1.1-4.8-2-7.7-3.1l2.2-5.5h13.9c3.1,0,12.8-.6,17.2-.6,13.2,0,20.7,4.5,20.7,13.8s-6,15.8-14.1,19.6c2.9,7.9,5.8,15.6,8.1,21.7l6.1,1.9-2,5.5c-5.2,0-9.9.1-16.4.3-2.4-8.7-4.9-16.3-7.9-25.5h-11.5l-.4,2.5c-.7,4.3-1.8,10.3-1.8,12.7s.1.9.2,1c.6,1,4.3,2.3,7.1,3.3l-2.1,5.5h-28.2v-5.5c-.1,0,9-2.9,9-2.9Zm17.6-24.5l15.1.4c4-2.3,7.3-7.4,8-13.3.3-3.3-.3-5.8-1.5-7.5-1.7-1.5-5.1-2.2-9.2-2.2s-5.8.2-8.2.8c-.8,3.4-1.7,8.3-3,15.9l-1.1,5.9Z"/><path class="f" d="m289.2,184.2h-23v-5.5c-.1,0,7.4-2.4,7.4-2.4,9-16.2,16.9-31.1,24.5-45.6l4-8.4c4.4-.8,12.3-1.4,16.5-1.5,0,2.1,1,8.2,1.3,10.4,2.4,14.5,5.6,31.3,8.5,45.3l6.5,2.3-2.1,5.5h-27.7v-5.5c-.1,0,9-2.3,9-2.3l-1.9-11.5-23.6.3-5.4,11.1,8.1,2.4-2.1,5.5Zm21.9-26.5c-1.8-10.7-3.7-22.5-4.8-28.2-2.9,5.6-8.6,17.4-13.9,28.1h18.7Z"/><path class="f" d="m382.5,175c1-3.2,2.3-7.1,4.3-12.5,2.1-.1,6.6.1,8.6.3-.2,3.8-1.1,10.3-1.8,13.8l-1.7,2.5c-5.3,3.4-12.4,6.2-21.8,6.2-16,0-26.5-9.6-26.5-24.7,0-21.5,15.7-39.6,38.2-39.6s14.9,2.1,20.1,5.2l1,2.5c-1.5,4.6-3.8,11.2-5.4,15.7-1.9.1-6.3.1-8.4-.2.1-5.2.1-10.3,0-12.7-1.9-1.2-5.3-2-9.3-2s-9,1.1-12.6,3.4c-5.9,5.4-10.2,15.7-10.2,26.6s4.9,17.3,15.5,17.3,7.6-.8,9.8-1.9Z"/><path class="f" d="m415,175.8c.7-2.3,2.1-9.1,3.1-14.6l2.8-15.7c.9-5,2.3-13.5,1.8-14.4-.7-1-5.2-2.3-8.4-3.3l2.2-5.5h30.7l.2,5.5-9.7,2.9c-.7,2.3-2.1,9.1-3.1,14.6l-2.8,15.7c-.9,5-2.3,13.5-1.8,14.4.6,1,5.2,2.3,8.4,3.3l-2.2,5.5h-30.7l-.2-5.5,9.7-2.9Z"/><path class="f" d="m450.5,161.5c0-21.1,15.5-40.5,37.6-40.5s23.9,9,23.9,23.9-14.5,40.5-36.6,40.5-24.9-9-24.9-23.9Zm39.2,11.4c4.8-5.1,9.2-16.9,9.2-28s-4.2-15.1-13.4-15.1-8.6,1.4-11.8,3.9c-5.3,5.3-9.9,16.6-9.9,26.9s4.3,15.9,13.7,15.9,9.6-1.7,12.2-3.7Zm13.8-84.8c1.8,2.2,4,6.2,5,9.3l-1.7,3.2-30.8,13.6-1.7-.4-1.4-4.4c9-6.9,20.4-14.8,30.5-21.2Z"/><path class="f" d="m564.1,184.5l-6-10.7c-5.3-9.5-11.3-20.8-18.5-32.9-3.1,18.9-5.6,33.3-4.9,34.5.7,1.2,5.4,2.2,9.2,3.2l-2.1,5.5h-25.7v-5.5c-.1,0,8.7-2.9,8.7-2.9,1-3.2,2.8-10.7,4.9-22.8,2.3-12.8,3.4-20.6,2.7-21.9-.9-1.2-4.3-2.4-6.9-3.3l2.1-5.5c5.8,0,12.7-.1,18-.3,4.1,9.6,13.6,27.1,23.6,44,3.4-20.3,5.9-33.6,4.8-35-.8-1.1-5.5-2.2-8.7-3.2l2.1-5.5h25.6l.2,5.5-9,3c-1.8,5.3-5.4,26-10.2,52.8l-10,1Z"/></g><g><path class="g" d="m367.7,261.2h32.6l-2.3,11.1h-52.1l1.7-8.8,33.4-26.4c8.8-7,11.4-11.2,11.4-16.4s-3.9-9-12.1-9-12.3,2.7-16.8,7.6l-8.9-7.1c5.9-7.1,16-11.7,27.5-11.7s23.7,7.7,23.7,18.4-3.6,15.4-16,25l-22.1,17.3Z"/><path class="g" d="m411.4,246.9c0-25.1,14.4-46.4,36.3-46.4s24.7,9.8,24.7,26.4c0,25.1-14.4,46.4-36.2,46.4s-24.8-9.8-24.8-26.4Zm47.8-19.7c0-10.2-4.8-15.3-12.5-15.3-14.3,0-22.1,19.8-22.1,34.7s4.8,15.3,12.7,15.3c14.2,0,21.9-19.8,21.9-34.7Z"/><path class="g" d="m493.7,261.2h32.6l-2.3,11.1h-52.1l1.7-8.8,33.4-26.4c8.8-7,11.4-11.2,11.4-16.4s-3.9-9-12.1-9-12.3,2.7-16.8,7.6l-8.9-7.1c5.9-7.1,16-11.7,27.5-11.7s23.7,7.7,23.7,18.4-3.6,15.4-16,25l-22.1,17.3Z"/><path class="g" d="m560.7,212.5l-5,16.4h5.4c18.1,0,26.6,7.5,26.6,19.2s-12.7,25.2-31.4,25.2-19.8-3.1-25.4-8.5l6.6-10c4.2,4.2,11.3,7.1,19.6,7.1s17.3-4.6,17.3-12.3-4.5-9.5-15.9-9.5h-18.2l11.2-38.5h41.6l-2.2,11h-30.2Z"/></g><g><path class="e" d="m504.8,32v43.8h-4v-6.1c-2.5,4.2-6.8,6.4-12,6.4-8.8,0-15.5-6.4-15.5-15.8s6.6-15.7,15.5-15.7,9.2,2.1,11.8,6.1v-18.6h4.2Zm-4.1,28.2c0-7.3-5-12.1-11.5-12.1s-11.6,4.8-11.6,12.1,5,12.1,11.6,12.1,11.5-4.8,11.5-12.1Z"/><path class="e" d="m543.5,61.6h-25.9c.5,6.5,5.4,10.8,12.2,10.8s7.1-1.4,9.5-4.1l2.4,2.7c-2.8,3.3-7.1,5.1-12,5.1-9.7,0-16.3-6.6-16.3-15.8s6.4-15.7,15.2-15.7,15,6.4,15,15.7,0,.8,0,1.3Zm-25.9-3.1h22c-.5-6.1-5-10.3-11-10.3s-10.4,4.2-11,10.3Z"/></g></g></svg>